<svg width="40" height="40" viewBox="0 0 40 40" fill="none" xmlns="http://www.w3.org/2000/svg">
<g clip-path="url(#clip0_377_379)">
<path d="M40 30.6129C40 31.3871 39.4194 31.9678 38.6452 31.9678H1.35484C0.580645 31.9678 0 31.3871 0 30.6129V9.32261C0 8.54842 0.580645 7.96777 1.35484 7.96777H38.6452C39.4194 7.96777 40 8.54842 40 9.32261V30.6129Z" fill="#12DB55"/>
<path d="M40 30.6129C40 31.3871 39.4194 31.9678 38.6452 31.9678H1.35484C0.580645 31.9678 0 31.3871 0 30.6129V9.32261C0 8.54842 0.580645 7.96777 1.35484 7.96777H38.6452C39.4194 7.96777 40 8.54842 40 9.32261V30.6129Z" fill="#12DB55"/>
<path d="M0 9.32261C0 8.54842 0.580645 7.96777 1.35484 7.96777H38.6452C39.4194 7.96777 40 8.54842 40 9.32261V30.6775C40 31.4516 39.4194 32.0323 38.6452 32.0323" fill="#0AC945"/>
<path d="M40 9.58105H0V17.3875H40V9.58105Z" fill="#334449"/>
<path d="M13.7415 17.3875H39.9996V9.58105H0.451172L13.7415 17.3875Z" fill="black"/>
<path d="M40 30.6128C40 31.387 39.4194 31.9676 38.6452 31.9676H1.35484C0.580645 31.9676 0 31.387 0 30.6128" fill="#0CC69A"/>
<path d="M38.6448 31.9676C39.419 31.9676 39.9996 31.387 39.9996 30.6128H36.3867L38.6448 31.9676Z" fill="#0BAF84"/>
<path d="M14.3228 21.3227C14.3228 21.5808 14.1292 21.7743 13.8712 21.7743H4.25825C4.00019 21.7743 3.80664 21.5808 3.80664 21.3227C3.80664 21.0646 4.00019 20.8711 4.25825 20.8711H13.8712C14.1292 20.8711 14.3228 21.0646 14.3228 21.3227Z" fill="#D4F9ED"/>
<path d="M14.3228 23.6455C14.3228 23.9035 14.1292 24.0971 13.8712 24.0971H4.25825C4.00019 24.0971 3.80664 23.9035 3.80664 23.6455C3.87116 23.3874 4.06471 23.1938 4.25825 23.1938H13.8712C14.1292 23.1938 14.3228 23.3874 14.3228 23.6455Z" fill="#D4F9ED"/>
<path d="M12.4517 25.9677C12.4517 26.2258 12.2582 26.4193 12.0001 26.4193H4.25819C4.06464 26.4193 3.87109 26.2258 3.87109 25.9677C3.87109 25.7097 4.06464 25.5161 4.32271 25.5161H12.0646C12.2582 25.5806 12.4517 25.7742 12.4517 25.9677Z" fill="#D4F9ED"/>
<path d="M29.0321 29.0646C31.7044 29.0646 33.8708 26.8983 33.8708 24.2259C33.8708 21.5536 31.7044 19.3872 29.0321 19.3872C26.3597 19.3872 24.1934 21.5536 24.1934 24.2259C24.1934 26.8983 26.3597 29.0646 29.0321 29.0646Z" fill="#FFBC00"/>
<path d="M29.0321 19.3872C26.5805 19.3872 24.5805 21.1937 24.1934 23.5162L31.9998 28.0969C33.1611 27.1937 33.8708 25.8388 33.8708 24.2259C33.9353 21.5162 31.7418 19.3872 29.0321 19.3872Z" fill="#FFAA00"/>
<path d="M29.0322 19.3872C31.7419 19.3872 33.8709 21.5808 33.8709 24.2259C33.8709 26.8711 31.6774 29.0646 29.0322 29.0646" fill="#F7B208"/>
<path d="M32.9032 29.0646C35.5755 29.0646 37.7419 26.8983 37.7419 24.2259C37.7419 21.5536 35.5755 19.3872 32.9032 19.3872C30.2308 19.3872 28.0645 21.5536 28.0645 24.2259C28.0645 26.8983 30.2308 29.0646 32.9032 29.0646Z" fill="#F20A41"/>
<path d="M32.9032 29.0646C35.5755 29.0646 37.7419 26.8983 37.7419 24.2259C37.7419 21.5536 35.5755 19.3872 32.9032 19.3872C30.2308 19.3872 28.0645 21.5536 28.0645 24.2259C28.0645 26.8983 30.2308 29.0646 32.9032 29.0646Z" fill="#F20A41"/>
<path d="M32.9032 29.1291C30.1935 29.1291 28.0645 26.9355 28.0645 24.2904C28.0645 21.6452 30.258 19.4517 32.9032 19.4517" fill="#E00040"/>
<path d="M30.9677 19.7739C29.2257 20.5481 28.0645 22.2255 28.0645 24.2255C28.0645 26.2255 29.2903 27.9675 30.9677 28.6772C32.7096 27.903 33.8709 26.2255 33.8709 24.2255C33.8709 22.2255 32.7096 20.4836 30.9677 19.7739Z" fill="#F97803"/>
<path d="M30.9678 28.6772C32.7097 27.903 33.871 26.2255 33.871 24.2255C33.871 22.2255 32.6452 20.4836 30.9678 19.7739" fill="#F76806"/>
</g>
<defs>
<clipPath id="clip0_377_379">
<rect width="40" height="40" fill="white"/>
</clipPath>
</defs>
</svg>
