<svg width="40" height="20" viewBox="0 0 40 20" fill="none" xmlns="http://www.w3.org/2000/svg">
<g clip-path="url(#clip0_377_407)">
<path d="M18.9182 9.77232V15.6331H17.4404V1.15628H21.3578C22.3028 1.13097 23.216 1.58244 23.8946 2.40945C24.5816 3.18793 24.9686 4.30185 24.9535 5.4643C24.9736 6.63519 24.5866 7.75755 23.8946 8.53814C23.2093 9.36092 22.3631 9.77232 21.3578 9.77021L18.9182 9.77232ZM18.9182 2.93898V7.99384H21.3947C21.9443 8.01493 22.4737 7.74278 22.8558 7.24489C23.6315 6.29552 23.65 4.73223 22.8943 3.75544C22.8809 3.73856 22.8692 3.72168 22.8558 3.70692C22.4788 3.19848 21.9459 2.92 21.3947 2.93898H18.9182ZM28.3582 5.40523C29.4507 5.40523 30.3119 5.77232 30.9436 6.50649C31.5752 7.24067 31.8902 8.24911 31.8902 9.52759V15.6331H30.4778V14.2575H30.4141C29.8025 15.3905 28.9882 15.9559 27.9728 15.9559C27.1066 15.9559 26.3811 15.6331 25.798 14.9854C25.2317 14.3841 24.91 13.4938 24.9234 12.5592C24.9234 11.5339 25.2317 10.7196 25.8466 10.1141C26.4615 9.5086 27.2825 9.20481 28.3113 9.20481C29.1876 9.20481 29.9114 9.40734 30.4778 9.81029V9.38413C30.4811 8.747 30.2566 8.14363 29.8679 7.73856C29.4775 7.29552 28.9681 7.05291 28.442 7.06135C27.6176 7.06135 26.9642 7.50017 26.4833 8.37569L25.1831 7.34405C25.8968 6.0508 26.9558 5.40523 28.3582 5.40523ZM26.4464 12.6014C26.4447 13.0824 26.6274 13.5339 26.9357 13.8145C27.2624 14.1373 27.6679 14.3103 28.0834 14.2997C28.7067 14.2976 29.3049 13.9854 29.7455 13.4305C30.2348 12.8504 30.4794 12.1711 30.4794 11.3884C30.0187 10.9263 29.3769 10.6943 28.5526 10.6943C27.9527 10.6943 27.4517 10.8757 27.0513 11.2407C26.6475 11.612 26.4464 12.0613 26.4464 12.6014ZM39.9998 5.72801L35.0687 20.0002H33.544L35.3737 15.0065L32.1298 5.72801H33.735L36.0791 12.844H36.1109L38.3913 5.72801H39.9998Z" fill="#5F6368"/>
<path d="M12.9481 8.50644C12.9481 7.93893 12.9112 7.37352 12.8341 6.81445H6.60449V10.017H10.1717C10.0243 11.0507 9.5484 11.9642 8.85306 12.5444V14.6246H10.9827C12.2293 13.1794 12.9481 11.0381 12.9481 8.50644Z" fill="#4285F4"/>
<path d="M6.60533 16.6349C8.3881 16.6349 9.88937 15.8986 10.9835 14.6265L8.8539 12.5463C8.26076 13.0526 7.49839 13.3417 6.60533 13.3417C4.88288 13.3417 3.42014 11.8796 2.89737 9.90918H0.704102V12.0526C1.82503 14.8628 4.10879 16.6349 6.60533 16.6349Z" fill="#34A853"/>
<path d="M2.897 9.90904C2.62053 8.87739 2.62053 7.75714 2.897 6.72549V4.58203H0.703724C-0.234575 6.93224 -0.234575 9.70228 0.703724 12.0525L2.897 9.90904Z" fill="#FBBC04"/>
<path d="M6.60533 3.29327C7.54698 3.27428 8.45679 3.72154 9.13873 4.5401L11.0254 2.16668C9.82905 0.753182 8.24568 -0.0231894 6.60533 1.73765e-05C4.10878 1.73765e-05 1.82503 1.77428 0.704102 4.5823L2.89737 6.72575C3.42014 4.75529 4.88288 3.29327 6.60533 3.29327Z" fill="#EA4335"/>
</g>
<defs>
<clipPath id="clip0_377_407">
<rect width="40" height="20" fill="white"/>
</clipPath>
</defs>
</svg>
