<svg width="40" height="40" viewBox="0 0 40 40" fill="none" xmlns="http://www.w3.org/2000/svg">
<path d="M40 7.17969H0V32.8207H40V7.17969Z" fill="#0E4595"/>
<path d="M15.0361 25.0635L16.7469 15.0246H19.4833L17.7713 25.0635H15.0361ZM27.6571 15.241C27.1151 15.0376 26.2655 14.8193 25.2047 14.8193C22.5008 14.8193 20.5962 16.1809 20.5801 18.1323C20.5647 19.5749 21.9398 20.3796 22.9776 20.8598C24.0428 21.3518 24.4008 21.6656 24.3958 22.1051C24.3891 22.778 23.5452 23.0854 22.7587 23.0854C21.6635 23.0854 21.0817 22.9332 20.183 22.5584L19.8304 22.3989L19.4463 24.6463C20.0855 24.9265 21.2674 25.1692 22.4944 25.1818C25.3708 25.1818 27.238 23.8358 27.2594 21.752C27.2696 20.61 26.5406 19.7409 24.9619 19.0244C24.0055 18.56 23.4197 18.2501 23.4259 17.7798C23.4259 17.3626 23.9217 16.9163 24.993 16.9163C25.8878 16.9025 26.536 17.0976 27.0411 17.3009L27.2862 17.4168L27.6571 15.241ZM34.6987 15.0244H32.5842C31.9292 15.0244 31.439 15.2032 31.1513 15.8569L27.0875 25.0569H29.9609C29.9609 25.0569 30.4306 23.8198 30.5369 23.5483C30.851 23.5483 33.6423 23.5526 34.0414 23.5526C34.1233 23.9041 34.3742 25.0569 34.3742 25.0569H36.9134L34.6987 15.0241V15.0244ZM31.3439 21.507C31.5701 20.9286 32.4341 18.7007 32.4341 18.7007C32.4179 18.7274 32.6587 18.1194 32.7969 17.7425L32.9818 18.6081C32.9818 18.6081 33.5058 21.0045 33.6153 21.507H31.3439ZM12.7131 15.0244L10.0341 21.8706L9.74863 20.4793C9.24991 18.8755 7.69606 17.138 5.95898 16.2681L8.40853 25.0476L11.3037 25.0443L15.6116 15.0243H12.7131" fill="white"/>
<path d="M7.5342 15.0236H3.12184L3.08691 15.2325C6.51963 16.0635 8.79102 18.0716 9.73409 20.4843L8.77461 15.871C8.60897 15.2353 8.12861 15.0456 7.5343 15.0234" fill="#F2AE14"/>
</svg>
